<?xml version="1.0" encoding="UTF-8" standalone="no"?>
<!DOCTYPE svg PUBLIC "-//W3C//DTD SVG 1.1//EN" "http://www.w3.org/Graphics/SVG/1.1/DTD/svg11.dtd">
<svg width="100%" height="100%" viewBox="0 0 48 48" version="1.1" xmlns="http://www.w3.org/2000/svg" xmlns:xlink="http://www.w3.org/1999/xlink" xml:space="preserve" xmlns:serif="http://www.serif.com/" style="fill-rule:evenodd;clip-rule:evenodd;stroke-linecap:round;stroke-linejoin:round;stroke-miterlimit:1.5;">
    <rect x="0" y="0" width="48" height="48"/>
    <g transform="matrix(0.916667,0,0,0.916667,2,2)">
        <rect x="0" y="0" width="48" height="48" style="fill:white;"/>
        <g transform="matrix(1,0,0,1,0,0.295534)">
            <g transform="matrix(1,0,0,1,32.5532,-3.55271e-15)">
                <path d="M0,8.747C9.439,8.747 6.008,38.662 15.447,38.662" style="fill:none;stroke:black;stroke-width:3.96px;"/>
            </g>
            <g transform="matrix(-1,0,0,1,31.7234,-7.10543e-15)">
                <path d="M0,8.747C9.439,8.747 6.008,38.662 15.447,38.662" style="fill:none;stroke:black;stroke-width:3.96px;"/>
            </g>
            <path d="M0,8.747C9.439,8.747 6.008,38.662 15.447,38.662" style="fill:none;stroke:black;stroke-width:3.96px;"/>
        </g>
    </g>
    <g transform="matrix(1,0,0,1,0,1)">
        <rect x="0" y="22" width="48" height="2"/>
    </g>
</svg>
